<svg xmlns="http://www.w3.org/2000/svg" viewBox="0 0 115.56 130.66">
    <defs>
        <style>.cls-1{fill:#eb7405;}</style>
    </defs>
    <g id="Layer_2" data-name="Layer 2">
        <g id="Layer_1-2" data-name="Layer 1">
            <path class="cls-1" d="M111.06,29.37,62.28,1.21a9,9,0,0,0-9,0L4.5,29.37A9,9,0,0,0,0,37.16V93.49a9,9,0,0,0,4.5,7.79l48.78,28.17a9,9,0,0,0,9,0l48.78-28.17a9,9,0,0,0,4.5-7.79V37.16A9,9,0,0,0,111.06,29.37ZM79,52.77a.91.91,0,0,1-1,1H73.74c-.64,0-.95-.34-.95-1V45H48.88V64.65h20c.68,0,1,.31,1,.95v4c0,.64-.35,1-1,1h-20V90H72.71V82.22c0-.63.34-1,1-1H78c.69,0,1,.32,1,1V95c0,.63-.34,1-1,1H36c-.69,0-1-.32-1-1v-4c0-.63.34-1,1-1h6V45H36c-.69,0-1-.32-1-.95V40c0-.63.34-1,1-1H78c.69,0,1,.32,1,1Z" />
        </g>
    </g>
</svg>