<svg xmlns="http://www.w3.org/2000/svg" viewBox="0 0 116.8 132.06">
    <defs>
        <style>.cls-1{fill:#eb7405;}</style>
    </defs>
    <g id="Layer_2" data-name="Layer 2">
        <g id="Layer_1-2" data-name="Layer 1">
            <path class="cls-1" d="M65.19,60.39q2.84-2,2.84-7,0-4.2-2.64-6.16T57,45.3H47.69V62.43h8.77Q62.34,62.43,65.19,60.39Z" />
            <path class="cls-1" d="M4.55,102.37l49.3,28.47a9.13,9.13,0,0,0,9.1,0l49.3-28.47a9.08,9.08,0,0,0,4.55-7.87V37.56a9.07,9.07,0,0,0-4.55-7.87L63,1.22a9.08,9.08,0,0,0-9.1,0L4.55,29.69A9.07,9.07,0,0,0,0,37.56V94.5A9.08,9.08,0,0,0,4.55,102.37ZM30.39,90.58h8.17V45.3H30.39V37.77H55.46q11.64,0,16.81,3.8t5.17,12a14.69,14.69,0,0,1-3.29,9.75A16.88,16.88,0,0,1,65,68.76L75.64,90.58H83v7.53H69.47L56.14,70H47.69V90.58h7.69v7.53h-25Z" />
        </g>
    </g>
</svg>