<svg xmlns="http://www.w3.org/2000/svg" viewBox="0 0 116.8 132.06">
    <defs>
        <style>.cls-1{fill:#eb7405;}</style>
    </defs>
    <g id="Layer_2" data-name="Layer 2">
        <g id="Layer_1-2" data-name="Layer 1">
            <path class="cls-1" d="M112.25,29.69,63,1.22a9.08,9.08,0,0,0-9.1,0L4.55,29.69A9.07,9.07,0,0,0,0,37.56V94.5a9.08,9.08,0,0,0,4.55,7.87l49.3,28.47a9.13,9.13,0,0,0,9.1,0l49.3-28.47a9.08,9.08,0,0,0,4.55-7.87V37.56A9.07,9.07,0,0,0,112.25,29.69ZM74.1,94.3Q69,99.12,60.36,99.11a21.86,21.86,0,0,1-14.93-6v5H37.9v-22h7.53v5.32q5.4,9.93,14.09,9.93,5.08,0,7.89-2.62a9.62,9.62,0,0,0,2.8-7.39q0-6.48-9.13-9l-7.52-2.12q-8.13-2.33-12-6.29A14.27,14.27,0,0,1,37.66,53.5q0-8,4.71-12.35t13-4.38a21.78,21.78,0,0,1,13.45,4.76V37.41h7.37v18.3H68.81V51.54A14.6,14.6,0,0,0,56,44.5c-3.31,0-5.85.66-7.61,2a6.78,6.78,0,0,0-2.64,5.76,6.44,6.44,0,0,0,2.5,5.49A22.21,22.21,0,0,0,55.92,61L63,62.83q6.78,1.8,10.39,4.77a14.06,14.06,0,0,1,4.73,6.28,23.63,23.63,0,0,1,1.1,7.41Q79.22,89.5,74.1,94.3Z" />
        </g>
    </g>
</svg>