<svg xmlns="http://www.w3.org/2000/svg" viewBox="0 0 116.8 132.06">
    <defs>
        <style>.cls-1{fill:#eb7405;}</style>
    </defs>
    <g id="Layer_2" data-name="Layer 2">
        <g id="Layer_1-2" data-name="Layer 1">
            <path class="cls-1" d="M112.25,29.69,63,1.22a9.08,9.08,0,0,0-9.1,0L4.55,29.69A9.07,9.07,0,0,0,0,37.56V94.5a9.08,9.08,0,0,0,4.55,7.87l49.3,28.47a9.13,9.13,0,0,0,9.1,0l49.3-28.47a9.08,9.08,0,0,0,4.55-7.87V37.56A9.07,9.07,0,0,0,112.25,29.69ZM82.86,59.83H75.42V45.3H63V90.58h7.85v7.53H46.15V90.58h7.69V45.3H41.46V59.83H34V37.77H82.86Z" />
        </g>
    </g>
</svg>