<svg xmlns="http://www.w3.org/2000/svg" viewBox="0 0 116.8 132.06">
    <defs>
        <style>.cls-1{fill:#eb7405;}</style>
    </defs>
    <g id="Layer_2" data-name="Layer 2">
        <g id="Layer_1-2" data-name="Layer 1">
            <path class="cls-1" d="M112.25,29.69,63,1.22a9.08,9.08,0,0,0-9.1,0L4.55,29.69A9.07,9.07,0,0,0,0,37.56V94.5a9.08,9.08,0,0,0,4.55,7.87l49.3,28.47a9.13,9.13,0,0,0,9.1,0l49.3-28.47a9.08,9.08,0,0,0,4.55-7.87V37.56A9.07,9.07,0,0,0,112.25,29.69Zm-14,17.17H92.7L79.81,98.17h-9.3L59.26,57.3a26.74,26.74,0,0,1-.74-4.57H58.2a26.74,26.74,0,0,1-.74,4.57L46.2,98.17H36.9L24.1,46.86H18.55V40.58H39v6.28H32.17l9,37.77c.4,2,.65,4.32.65,4.32H42s.33-2.28.82-4.32l12.07-44h6.94l12,44.05A31.28,31.28,0,0,1,74.68,89H75a39.58,39.58,0,0,1,.57-4.32l9-37.77H77.69V40.58H98.25Z" />
        </g>
    </g>
</svg>